<svg width="24" height="21" viewBox="0 0 24 21" fill="none" xmlns="http://www.w3.org/2000/svg">
<path d="M5.20874 9.99996H16.3787L11.4987 14.88C11.1087 15.27 11.1087 15.91 11.4987 16.3C11.8887 16.69 12.5187 16.69 12.9087 16.3L19.4987 9.70996C19.8887 9.31996 19.8887 8.68996 19.4987 8.29996L12.9187 1.69996C12.7319 1.5127 12.4783 1.40747 12.2137 1.40747C11.9492 1.40747 11.6956 1.5127 11.5087 1.69996C11.1187 2.08996 11.1187 2.71996 11.5087 3.10996L16.3787 7.99996H5.20874C4.65874 7.99996 4.20874 8.44996 4.20874 8.99996C4.20874 9.54996 4.65874 9.99996 5.20874 9.99996Z" fill="#37474F"/>
<mask id="mask0" mask-type="alpha" maskUnits="userSpaceOnUse" x="4" y="1" width="16" height="16">
<path d="M5.20874 9.99996H16.3787L11.4987 14.88C11.1087 15.27 11.1087 15.91 11.4987 16.3C11.8887 16.69 12.5187 16.69 12.9087 16.3L19.4987 9.70996C19.8887 9.31996 19.8887 8.68996 19.4987 8.29996L12.9187 1.69996C12.7319 1.5127 12.4783 1.40747 12.2137 1.40747C11.9492 1.40747 11.6956 1.5127 11.5087 1.69996C11.1187 2.08996 11.1187 2.71996 11.5087 3.10996L16.3787 7.99996H5.20874C4.65874 7.99996 4.20874 8.44996 4.20874 8.99996C4.20874 9.54996 4.65874 9.99996 5.20874 9.99996Z" fill="white"/>
</mask>
<g mask="url(#mask0)">
</g>
</svg>
