<svg width="76" height="76" viewBox="0 0 76 76" fill="none" xmlns="http://www.w3.org/2000/svg">
<rect opacity="0.136765" width="76" height="76" rx="11" fill="#717CFF"/>
<path d="M23.2481 27.76L30.0791 22.468C31.1591 21.622 31.9151 20.866 32.3471 20.2C32.7791 19.534 32.9951 18.868 32.9951 18.202C32.9951 17.464 32.7251 16.87 32.1851 16.42C31.6451 15.97 30.9791 15.745 30.1871 15.745C29.3231 15.745 28.5311 15.952 27.8111 16.366C27.0911 16.78 26.3711 17.392 25.6511 18.202L23.1131 15.745C25.0211 13.333 27.4151 12.127 30.2951 12.127C31.5911 12.127 32.7521 12.379 33.7781 12.883C34.8221 13.387 35.6321 14.089 36.2081 14.989C36.8021 15.871 37.0991 16.888 37.0991 18.04C37.0991 19.318 36.7751 20.479 36.1271 21.523C35.4791 22.549 34.3631 23.638 32.7791 24.79L29.4041 27.409H37.2611V31H23.2481V27.76ZM46.7199 31.351C45.1179 31.351 43.6779 31.072 42.3999 30.514C41.1399 29.938 40.0959 29.173 39.2679 28.219L41.6169 25.573C42.2649 26.275 43.0119 26.815 43.8579 27.193C44.7039 27.571 45.5949 27.76 46.5309 27.76C47.5389 27.76 48.3309 27.553 48.9069 27.139C49.4829 26.725 49.7709 26.176 49.7709 25.492C49.7709 24.772 49.4739 24.232 48.8799 23.872C48.3039 23.512 47.3949 23.341 46.1529 23.359H44.0199V19.957L46.1529 19.984C47.1789 19.984 47.9709 19.804 48.5289 19.444C49.1049 19.084 49.3929 18.571 49.3929 17.905C49.3929 17.239 49.1049 16.708 48.5289 16.312C47.9529 15.898 47.2059 15.691 46.2879 15.691C45.4599 15.691 44.6859 15.88 43.9659 16.258C43.2639 16.618 42.5799 17.149 41.9139 17.851L39.6189 15.421C41.4369 13.225 43.7859 12.127 46.6659 12.127C48.0339 12.127 49.2309 12.343 50.2569 12.775C51.2829 13.207 52.0749 13.81 52.6329 14.584C53.1909 15.358 53.4699 16.231 53.4699 17.203C53.4699 18.247 53.1459 19.147 52.4979 19.903C51.8679 20.641 51.0309 21.163 49.9869 21.469C51.0849 21.721 52.0029 22.225 52.7409 22.981C53.4969 23.719 53.8749 24.664 53.8749 25.816C53.8749 26.878 53.5779 27.832 52.9839 28.678C52.3899 29.506 51.5529 30.163 50.4729 30.649C49.3929 31.117 48.1419 31.351 46.7199 31.351Z" fill="#717CFF"/>
<path d="M21.8365 43.634H26.1925C27.5365 43.634 28.7365 43.898 29.7925 44.426C30.8485 44.954 31.6705 45.686 32.2585 46.622C32.8585 47.558 33.1585 48.62 33.1585 49.808C33.1585 50.996 32.8585 52.064 32.2585 53.012C31.6705 53.948 30.8485 54.68 29.7925 55.208C28.7365 55.736 27.5365 56 26.1925 56H21.8365V43.634ZM26.4265 53.966C27.2905 53.966 28.0585 53.792 28.7305 53.444C29.4025 53.084 29.9245 52.592 30.2965 51.968C30.6805 51.332 30.8725 50.612 30.8725 49.808C30.8725 49.004 30.6805 48.29 30.2965 47.666C29.9245 47.042 29.4025 46.556 28.7305 46.208C28.0585 45.848 27.2905 45.668 26.4265 45.668H24.0865V53.966H26.4265ZM39.6338 54.272C40.0658 54.272 40.5098 54.182 40.9658 54.002C41.4218 53.822 41.7818 53.6 42.0458 53.336L43.4318 54.776C43.0358 55.196 42.4778 55.544 41.7578 55.82C41.0378 56.084 40.3358 56.216 39.6518 56.216C38.7638 56.216 37.9478 56.006 37.2038 55.586C36.4718 55.166 35.8838 54.584 35.4398 53.84C35.0078 53.096 34.7918 52.256 34.7918 51.32C34.7918 50.408 35.0018 49.586 35.4218 48.854C35.8418 48.11 36.4118 47.528 37.1318 47.108C37.8518 46.688 38.6498 46.478 39.5258 46.478C40.4738 46.478 41.2898 46.706 41.9738 47.162C42.6578 47.618 43.1798 48.272 43.5398 49.124C43.8998 49.964 44.0798 50.954 44.0798 52.094H37.0598C37.1918 52.742 37.4858 53.27 37.9418 53.678C38.4098 54.074 38.9738 54.272 39.6338 54.272ZM39.6158 48.422C39.0038 48.422 38.4638 48.602 37.9958 48.962C37.5398 49.322 37.2338 49.808 37.0778 50.42H41.9738C41.8418 49.808 41.5718 49.322 41.1638 48.962C40.7678 48.602 40.2518 48.422 39.6158 48.422ZM50.4653 56.216C49.5893 56.216 48.7673 55.994 47.9993 55.55C47.2433 55.106 46.6373 54.512 46.1813 53.768C45.7253 53.012 45.4973 52.202 45.4973 51.338C45.4973 50.474 45.7253 49.67 46.1813 48.926C46.6373 48.182 47.2493 47.588 48.0173 47.144C48.7853 46.7 49.6133 46.478 50.5013 46.478C51.1853 46.478 51.8273 46.616 52.4273 46.892C53.0393 47.156 53.5733 47.522 54.0293 47.99L52.5533 49.286C52.3013 48.998 51.9893 48.77 51.6173 48.602C51.2453 48.434 50.8673 48.35 50.4833 48.35C49.9793 48.35 49.5113 48.488 49.0793 48.764C48.6473 49.028 48.3053 49.394 48.0533 49.862C47.8013 50.318 47.6753 50.81 47.6753 51.338C47.6753 51.878 47.8013 52.382 48.0533 52.85C48.3053 53.306 48.6473 53.672 49.0793 53.948C49.5113 54.212 49.9793 54.344 50.4833 54.344C50.8793 54.344 51.2633 54.26 51.6353 54.092C52.0193 53.912 52.3433 53.672 52.6073 53.372L54.0833 54.65C53.6153 55.142 53.0753 55.526 52.4633 55.802C51.8513 56.078 51.1853 56.216 50.4653 56.216Z" fill="#717CFF"/>
</svg>
