<svg width="76" height="76" viewBox="0 0 76 76" fill="none" xmlns="http://www.w3.org/2000/svg">
<rect opacity="0.136765" width="76" height="76" rx="11" fill="#717CFF"/>
<path d="M29.3795 17.014L26.2205 18.985L24.6275 16.177L30.1895 12.451H33.3755V31H29.3795V17.014ZM45.9046 16.042H36.7246V12.451H50.5216V15.448L43.0426 31H38.5336L45.9046 16.042Z" fill="#717CFF"/>
<path d="M28.6195 56.216C27.4675 56.216 26.3935 55.928 25.3975 55.352C24.4015 54.764 23.6035 53.978 23.0035 52.994C22.4155 52.01 22.1215 50.948 22.1215 49.808C22.1215 48.668 22.4155 47.612 23.0035 46.64C23.6035 45.656 24.4015 44.876 25.3975 44.3C26.3935 43.712 27.4675 43.418 28.6195 43.418C29.7715 43.418 30.8455 43.712 31.8415 44.3C32.8375 44.876 33.6295 45.656 34.2175 46.64C34.8055 47.612 35.0995 48.668 35.0995 49.808C35.0995 50.948 34.8055 52.01 34.2175 52.994C33.6295 53.978 32.8375 54.764 31.8415 55.352C30.8455 55.928 29.7715 56.216 28.6195 56.216ZM28.6195 54.164C29.3635 54.164 30.0535 53.966 30.6895 53.57C31.3375 53.174 31.8475 52.646 32.2195 51.986C32.6035 51.314 32.7955 50.588 32.7955 49.808C32.7955 49.04 32.6035 48.326 32.2195 47.666C31.8475 46.994 31.3375 46.46 30.6895 46.064C30.0535 45.668 29.3635 45.47 28.6195 45.47C27.8755 45.47 27.1795 45.668 26.5315 46.064C25.8835 46.46 25.3675 46.994 24.9835 47.666C24.5995 48.326 24.4075 49.04 24.4075 49.808C24.4075 50.588 24.5995 51.314 24.9835 51.986C25.3675 52.646 25.8835 53.174 26.5315 53.57C27.1795 53.966 27.8755 54.164 28.6195 54.164ZM41.5718 56.216C40.6958 56.216 39.8738 55.994 39.1058 55.55C38.3498 55.106 37.7438 54.512 37.2878 53.768C36.8318 53.012 36.6038 52.202 36.6038 51.338C36.6038 50.474 36.8318 49.67 37.2878 48.926C37.7438 48.182 38.3558 47.588 39.1238 47.144C39.8918 46.7 40.7198 46.478 41.6078 46.478C42.2918 46.478 42.9338 46.616 43.5338 46.892C44.1458 47.156 44.6798 47.522 45.1358 47.99L43.6598 49.286C43.4078 48.998 43.0958 48.77 42.7238 48.602C42.3518 48.434 41.9738 48.35 41.5898 48.35C41.0858 48.35 40.6178 48.488 40.1858 48.764C39.7538 49.028 39.4118 49.394 39.1598 49.862C38.9078 50.318 38.7818 50.81 38.7818 51.338C38.7818 51.878 38.9078 52.382 39.1598 52.85C39.4118 53.306 39.7538 53.672 40.1858 53.948C40.6178 54.212 41.0858 54.344 41.5898 54.344C41.9858 54.344 42.3698 54.26 42.7418 54.092C43.1258 53.912 43.4498 53.672 43.7138 53.372L45.1898 54.65C44.7218 55.142 44.1818 55.526 43.5698 55.802C42.9578 56.078 42.2918 56.216 41.5718 56.216ZM52.19 55.478C51.926 55.706 51.614 55.886 51.254 56.018C50.906 56.15 50.558 56.216 50.21 56.216C49.442 56.216 48.812 55.964 48.32 55.46C47.828 54.956 47.582 54.314 47.582 53.534V48.512H46.232V46.694H47.582V44.138H49.724V46.694H51.83V48.512H49.724V53.264C49.724 53.576 49.808 53.834 49.976 54.038C50.156 54.242 50.378 54.344 50.642 54.344C50.822 54.344 50.99 54.314 51.146 54.254C51.314 54.194 51.452 54.11 51.56 54.002L52.19 55.478Z" fill="#717CFF"/>
</svg>
